<svg viewBox="0 0 458.361 377" height="377" width="458.361" xmlns:xlink="http://www.w3.org/1999/xlink" xmlns="http://www.w3.org/2000/svg"><defs><clipPath id="clip-path"><path fill="#f6f6f6" transform="translate(215 6134)" d="M6.153,0H452.209c3.4,0,6.152,8.954,6.152,20V357c0,11.046-2.755,20-6.152,20H6.153C2.755,377,0,368.046,0,357V20C0,8.954,2.755,0,6.153,0Z" data-name="Path 59573" id="Path_59573"></path></clipPath></defs><g transform="translate(-215 -6134)" data-name="Group 129655" id="Group_129655"><g clip-path="url(#clip-path)" data-name="Mask Group 47" id="Mask_Group_47"><g transform="translate(160.865 5940.604)" data-name="Group 129654" id="Group_129654"><g transform="translate(63.905 63.895)" data-name="Group 1777" id="Group_1777"><g transform="translate(4.041 4.042)" data-name="Group 1676" id="Group_1676"><path fill="#f98d74" transform="translate(-28.759 -28.759)" d="M246.313,463.868l-.313-.177-50.3-28.485-58.163-.485-29.5-50.13L57.9,355.09l0-.361-.483-57.8-28.66-50.612.175-.314,28.485-50.3.485-58.164.31-.183,49.82-29.32,29.5-50.128L195.7,57.42l50.614-28.661L296.927,57.42l58.163.485,29.5,50.128,50.13,29.5,0,.36.483,57.8,28.66,50.614-.177.313-28.484,50.3-.485,58.164-50.13,29.5-29.5,50.13-.36,0-57.8.483ZM138.266,433.456l57.774.483,50.273,28.47,50.273-28.47,57.774-.483,29.3-49.792,49.793-29.3.483-57.773,28.47-50.273-28.47-50.274-.483-57.774-49.793-29.3-.083-.142L354.36,59.17l-57.774-.482-.142-.081L246.313,30.22,196.04,58.688l-57.774.482-29.3,49.793-.142.084L59.17,138.266l-.483,57.774-.08.144-28.39,50.131,28.47,50.273.483,57.773,49.793,29.3Z" data-name="Path 3102" id="Path_3102"></path></g><g transform="translate(0 0)" data-name="Group 1701" id="Group_1701"><g transform="translate(109.649 29.67)" data-name="Group 1677" id="Group_1677"><path fill="#f98d74" transform="translate(-111.885 -48.931)" d="M112.979,51.546l-1.094-.644,1.149-1.952,2.265-.019.01,1.27-1.546.013Z" data-name="Path 3103" id="Path_3103"></path></g><g transform="translate(116.75 2.933)" data-name="Group 1678" id="Group_1678"><path fill="#f98d74" transform="translate(-117.474 -27.886)" d="M117.483,55.863l-.009-1.27,3.686-.032.01,1.27Zm7.374-.062-.01-1.27,3.687-.03.009,1.27Zm7.374-.061-.01-1.27,3.686-.03.01,1.27Zm7.374-.061-.01-1.27,3.686-.032.01,1.27Zm7.372-.062-.01-1.27,3.687-.03.01,1.27Zm7.374-.061-.01-1.27,3.687-.03.009,1.27Zm7.374-.061-.01-1.27,3.686-.032.01,1.27Zm7.372-.062-.009-1.27,1.678-.014,1.461-.827.625,1.105-1.747.99Zm6.963-2.823-.625-1.105,3.208-1.817.625,1.107Zm6.417-3.633-.626-1.105,3.209-1.817.625,1.107Zm6.415-3.632-.625-1.107,3.209-1.817.625,1.105Zm6.417-3.634-.625-1.107,3.208-1.817.626,1.105Zm6.416-3.635L201.1,36.97l3.208-1.817.625,1.107Zm6.417-3.633-.625-1.105,3.208-1.817.625,1.105Zm6.416-3.633-.626-1.105,3.209-1.817.625,1.105Z" data-name="Path 3104" id="Path_3104"></path></g><g transform="translate(219.624)" data-name="Group 1679" id="Group_1679"><path fill="#f98d74" transform="translate(-198.448 -25.578)" d="M201.766,27.8l-1.346-.762-1.346.762-.625-1.106,1.972-1.117,1.971,1.117Z" data-name="Path 3105" id="Path_3105"></path></g><g transform="translate(226.148 2.933)" data-name="Group 1680" id="Group_1680"><path fill="#f98d74" transform="translate(-203.584 -27.886)" d="M303.866,55.863l-3.687-.03.01-1.27,3.686.03Zm-7.374-.062-3.687-.03.01-1.27,3.687.03Zm-7.374-.061-3.686-.03.01-1.27,3.686.03Zm-7.374-.061-3.686-.032.01-1.27,3.686.032Zm-7.372-.062-3.687-.03.01-1.27,3.686.03ZM267,55.555l-3.686-.03.009-1.27,3.687.03Zm-7.374-.061-3.686-.032.01-1.27,3.686.032Zm-7.372-.062-2.009-.017-1.747-.99.626-1.105,1.461.827,1.677.014Zm-6.963-2.823-3.208-1.817.625-1.105,3.208,1.817Zm-6.417-3.633-3.207-1.817.625-1.105L239.5,47.87Zm-6.416-3.634-3.208-1.817.625-1.105,3.209,1.817Zm-6.416-3.633-3.208-1.817.625-1.105,3.208,1.817Zm-6.416-3.634-3.208-1.817.625-1.105,3.208,1.817Zm-6.417-3.633L210,32.625l.625-1.105,3.207,1.817Zm-6.416-3.633-3.208-1.817.625-1.105,3.209,1.817Z" data-name="Path 3106" id="Path_3106"></path></g><g transform="translate(330.117 29.67)" data-name="Group 1681" id="Group_1681"><path fill="#f98d74" transform="translate(-285.42 -48.931)" d="M287.75,51.546l-.784-1.332L285.42,50.2l.01-1.27,2.265.019,1.149,1.952Z" data-name="Path 3107" id="Path_3107"></path></g><g transform="translate(334.317 34.819)" data-name="Group 1682" id="Group_1682"><path fill="#f98d74" transform="translate(-288.726 -52.984)" d="M362.137,127.039l-3.177-1.87.645-1.094,3.177,1.87Zm-6.355-3.739-3.177-1.871.645-1.094,3.177,1.87Zm-6.355-3.74-3.177-1.869.645-1.1,3.177,1.87Zm-6.355-3.74-3.177-1.869.645-1.1,3.177,1.87Zm-6.355-3.74-3.177-1.869.645-1.1,3.177,1.869Zm-6.355-3.739-3.177-1.871.645-1.094,3.177,1.87Zm-6.355-3.74-3.177-1.87.645-1.1,3.177,1.871Zm-6.355-3.74-1.729-1.018-1.019-1.73L316,97.466l.852,1.447,1.447.852Zm-4.618-5.927-1.869-3.177,1.094-.643,1.87,3.177ZM309.3,88.58,307.425,85.4l1.1-.645,1.87,3.177Zm-3.74-6.356-1.87-3.177,1.094-.643,1.87,3.177Zm-3.74-6.354-1.87-3.177,1.094-.645,1.871,3.177Zm-3.74-6.355-1.87-3.177,1.1-.644,1.869,3.177Zm-3.739-6.355-1.871-3.177,1.094-.645,1.871,3.177Zm-3.741-6.355-1.869-3.177,1.094-.644,1.87,3.177Z" data-name="Path 3108" id="Path_3108"></path></g><g transform="translate(410.905 109.649)" data-name="Group 1683" id="Group_1683"><path fill="#f98d74" transform="translate(-349.01 -111.885)" d="M350.356,115.31l-.014-1.546-1.332-.785.645-1.094,1.953,1.15.018,2.264Z" data-name="Path 3109" id="Path_3109"></path></g><g transform="translate(412.283 116.75)" data-name="Group 1684" id="Group_1684"><path fill="#f98d74" transform="translate(-350.094 -117.474)" d="M376.965,217.766l-1.818-3.208,1.105-.626,1.817,3.208Zm-3.635-6.416-1.817-3.208,1.107-.626,1.817,3.208Zm-3.635-6.417-1.816-3.207,1.107-.628,1.815,3.208Zm-3.631-6.416-1.818-3.208,1.1-.626,1.818,3.208ZM362.43,192.1l-1.817-3.208,1.107-.626,1.817,3.208Zm-3.635-6.416-1.815-3.208,1.107-.628,1.815,3.208Zm-3.631-6.417-1.818-3.208,1.1-.626,1.818,3.208Zm-3.635-6.416-.99-1.747-.015-2.009,1.27-.01.013,1.678.828,1.461Zm-1.037-7.441-.03-3.687,1.27-.011.03,3.687Zm-.062-7.375-.029-3.686,1.27-.01.029,3.687Zm-.061-7.372-.031-3.687,1.27-.01.031,3.686Zm-.061-7.374-.03-3.687,1.27-.01.03,3.687Zm-.061-7.372-.032-3.687,1.27-.011.032,3.687Zm-.062-7.374-.029-3.687,1.27-.01.029,3.687Zm-.061-7.374-.031-3.687,1.27-.01.03,3.687Z" data-name="Path 3110" id="Path_3110"></path></g><g transform="translate(440.969 219.626)" data-name="Group 1685" id="Group_1685"><path fill="#f98d74" transform="translate(-372.674 -198.449)" d="M373.78,202.391l-1.107-.625.762-1.346-.762-1.346,1.107-.625,1.114,1.971Z" data-name="Path 3111" id="Path_3111"></path></g><g transform="translate(412.283 226.15)" data-name="Group 1686" id="Group_1686"><path fill="#f98d74" transform="translate(-350.094 -203.585)" d="M351.364,303.877l-1.27-.01.031-3.687,1.27.009Zm.062-7.374-1.27-.01.03-3.687,1.27.01Zm.06-7.374-1.27-.009.032-3.688,1.27.01Zm.062-7.372-1.27-.01.032-3.687,1.27.009Zm.061-7.374-1.27-.01.031-3.687,1.27.01Zm.062-7.374L350.4,267l.029-3.688,1.27.01Zm.061-7.372-1.27-.01.03-3.688,1.27.01Zm.062-7.374-1.27-.01.015-2.009.99-1.747,1.107.625-.828,1.462Zm2.655-6.348-1.1-.625,1.818-3.209,1.1.625Zm3.636-6.416-1.107-.625,1.815-3.209,1.107.626Zm3.633-6.417-1.107-.625,1.817-3.208,1.107.625Zm3.632-6.416-1.107-.625,1.817-3.208,1.107.625Zm3.635-6.416-1.107-.626,1.816-3.208,1.107.625Zm3.632-6.417-1.107-.625L373.329,210l1.107.625Zm3.635-6.416-1.108-.625,1.817-3.208,1.107.625Z" data-name="Path 3112" id="Path_3112"></path></g><g transform="translate(410.905 330.118)" data-name="Group 1687" id="Group_1687"><path fill="#f98d74" transform="translate(-349.01 -285.42)" d="M349.655,288.845l-.645-1.094,1.332-.784.014-1.546,1.27.01-.018,2.266Z" data-name="Path 3113" id="Path_3113"></path></g><g transform="translate(334.319 334.318)" data-name="Group 1688" id="Group_1688"><path fill="#f98d74" transform="translate(-288.727 -288.726)" d="M289.821,362.782l-1.094-.645,1.869-3.177,1.1.645Zm3.739-6.355-1.094-.645,1.871-3.177,1.094.645Zm3.742-6.355-1.1-.645,1.87-3.177,1.094.645Zm3.739-6.355-1.094-.645,1.869-3.177,1.1.645Zm3.74-6.355-1.094-.644,1.87-3.177,1.094.644Zm3.74-6.355-1.1-.645,1.87-3.177,1.094.645Zm3.739-6.355-1.094-.644,1.87-3.177,1.1.644ZM316,318.3l-1.094-.644,1.018-1.73,1.73-1.018L318.3,316l-1.448.852Zm5.477-4.168-.645-1.094,3.177-1.87.645,1.1Zm6.355-3.74-.645-1.1,3.177-1.869.645,1.094Zm6.355-3.739-.645-1.1,3.177-1.869.645,1.094Zm6.355-3.74-.645-1.094,3.177-1.871.645,1.094Zm6.355-3.74-.645-1.1,3.177-1.869.645,1.094Zm6.355-3.74-.645-1.094,3.177-1.871.645,1.1Zm6.355-3.74-.645-1.094,3.177-1.87.645,1.094Z" data-name="Path 3114" id="Path_3114"></path></g><g transform="translate(330.117 410.907)" data-name="Group 1689" id="Group_1689"><path fill="#f98d74" transform="translate(-285.42 -349.01)" d="M285.43,351.627l-.01-1.27,1.546-.014.784-1.332,1.094.645-1.149,1.953Z" data-name="Path 3115" id="Path_3115"></path></g><g transform="translate(226.15 412.283)" data-name="Group 1690" id="Group_1690"><path fill="#f98d74" transform="translate(-203.585 -350.094)" d="M204.21,378.071l-.625-1.1,3.208-1.818.625,1.1Zm6.416-3.633L210,373.331l3.208-1.816.625,1.107Zm6.417-3.634-.626-1.107,3.209-1.817.625,1.107Zm6.415-3.633-.625-1.105,3.209-1.817.625,1.1Zm6.417-3.634-.625-1.107,3.208-1.817.626,1.108Zm6.416-3.633-.625-1.107,3.208-1.817.625,1.107Zm6.417-3.634-.625-1.105,3.208-1.817.625,1.1Zm6.416-3.633-.626-1.107,1.747-.988,2.01-.017.009,1.27-1.678.014Zm6.827-.872-.01-1.27,3.686-.032.01,1.27Zm7.372-.062-.009-1.27L267,350.4l.01,1.27Zm7.374-.061-.01-1.27,3.687-.031.009,1.27Zm7.374-.062-.01-1.27,3.686-.029.01,1.27Zm7.374-.061-.01-1.27,3.686-.03.01,1.27Zm7.372-.062-.01-1.27,3.687-.029.01,1.27Zm7.374-.06-.01-1.27,3.687-.032.009,1.27Z" data-name="Path 3116" id="Path_3116"></path></g><g transform="translate(219.624 440.971)" data-name="Group 1691" id="Group_1691"><path fill="#f98d74" transform="translate(-198.448 -372.674)" d="M200.42,374.9l-1.972-1.114.625-1.107,1.346.762,1.346-.762.625,1.107Z" data-name="Path 3117" id="Path_3117"></path></g><g transform="translate(116.75 412.283)" data-name="Group 1692" id="Group_1692"><path fill="#f98d74" transform="translate(-117.474 -350.094)" d="M217.141,378.071l-3.209-1.817.626-1.107,3.208,1.817Zm-6.417-3.635-3.207-1.815.625-1.107,3.207,1.815Zm-6.416-3.632-3.208-1.817.625-1.107,3.208,1.817Zm-6.417-3.633-3.208-1.817.625-1.107,3.209,1.817Zm-6.415-3.634-3.209-1.815.625-1.108,3.209,1.817ZM185.06,359.9l-3.209-1.817.626-1.107,3.208,1.817Zm-6.416-3.634-3.208-1.818.625-1.1,3.208,1.817Zm-6.417-3.633-1.461-.827-1.678-.014.009-1.27,2.009.017,1.747.988Zm-6.826-.872-3.687-.032.01-1.27,3.687.032Zm-7.374-.062-3.687-.03.01-1.27,3.687.03Zm-7.372-.061-3.688-.031.01-1.27,3.688.031Zm-7.374-.062-3.687-.029.01-1.27,3.687.029Zm-7.374-.061-3.687-.03.01-1.27,3.687.03Zm-7.372-.061-3.688-.03.01-1.27,3.687.03Zm-7.374-.061-3.687-.032.009-1.27,3.688.032Z" data-name="Path 3118" id="Path_3118"></path></g><g transform="translate(109.649 410.907)" data-name="Group 1693" id="Group_1693"><path fill="#f98d74" transform="translate(-111.885 -349.01)" d="M115.3,351.627l-2.265-.019-1.149-1.953,1.094-.645.784,1.332,1.546.014Z" data-name="Path 3119" id="Path_3119"></path></g><g transform="translate(34.817 334.319)" data-name="Group 1694" id="Group_1694"><path fill="#f98d74" transform="translate(-52.983 -288.727)" d="M125.945,362.783l-1.87-3.177,1.1-.645,1.869,3.177Zm-3.739-6.355-1.871-3.177,1.094-.645,1.871,3.177Zm-3.741-6.355L116.6,346.9l1.094-.645,1.87,3.177Zm-3.739-6.355-1.871-3.177,1.1-.645,1.87,3.177Zm-3.74-6.355-1.87-3.177,1.094-.644,1.87,3.176Zm-3.74-6.355-1.869-3.177,1.094-.645,1.87,3.179Zm-3.74-6.355-1.87-3.177,1.1-.644,1.869,3.176ZM99.766,318.3l-.852-1.447L97.467,316l.645-1.094,1.729,1.016,1.019,1.732Zm-5.477-4.168-3.177-1.87.645-1.1,3.177,1.871Zm-6.355-3.74-3.177-1.87.645-1.094L88.58,309.3Zm-6.355-3.74L78.4,304.782l.645-1.1,3.177,1.87Zm-6.355-3.74-3.177-1.87.645-1.094,3.177,1.87Zm-6.355-3.739-3.177-1.87.645-1.094,3.177,1.869Zm-6.355-3.74-3.177-1.87.645-1.1,3.177,1.871Zm-6.355-3.74-3.177-1.87.645-1.094,3.177,1.87Z" data-name="Path 3120" id="Path_3120"></path></g><g transform="translate(29.668 330.118)" data-name="Group 1695" id="Group_1695"><path fill="#f98d74" transform="translate(-48.931 -285.42)" d="M50.9,288.845,48.949,287.7l-.019-2.266,1.27-.01.014,1.546,1.332.784Z" data-name="Path 3121" id="Path_3121"></path></g><g transform="translate(2.932 226.15)" data-name="Group 1696" id="Group_1696"><path fill="#f98d74" transform="translate(-27.886 -203.585)" d="M54.591,303.877l-.03-3.686,1.27-.01.03,3.686Zm-.062-7.374-.029-3.686,1.27-.01.029,3.686Zm-.06-7.374-.032-3.686,1.27-.01.032,3.687Zm-.062-7.372-.03-3.687,1.27-.009.03,3.686Zm-.061-7.374-.032-3.686,1.27-.01.032,3.686Zm-.062-7.374-.029-3.686,1.27-.01L55.554,267Zm-.061-7.372-.03-3.687,1.27-.01.03,3.687Zm-.062-7.374-.013-1.678-.828-1.462,1.107-.625.99,1.747.015,2.009Zm-2.655-6.347-1.818-3.209,1.1-.625,1.818,3.209ZM47.869,239.5l-1.817-3.208,1.108-.626,1.815,3.209Zm-3.633-6.416-1.817-3.208,1.107-.625,1.817,3.208ZM40.6,226.667l-1.815-3.208,1.107-.625,1.817,3.208Zm-3.634-6.415-1.817-3.209,1.108-.625,1.815,3.208Zm-3.631-6.417-1.818-3.209,1.1-.625,1.818,3.209ZM29.7,207.419l-1.815-3.208,1.107-.626,1.815,3.209Z" data-name="Path 3122" id="Path_3122"></path></g><g transform="translate(0 219.626)" data-name="Group 1697" id="Group_1697"><path fill="#f98d74" transform="translate(-25.578 -198.449)" d="M26.692,202.391l-1.114-1.971,1.114-1.971,1.107.625-.762,1.346.762,1.346Z" data-name="Path 3123" id="Path_3123"></path></g><g transform="translate(2.932 116.75)" data-name="Group 1698" id="Group_1698"><path fill="#f98d74" transform="translate(-27.886 -117.474)" d="M28.993,217.766l-1.107-.625,1.815-3.209,1.107.626Zm3.634-6.416-1.107-.626,1.817-3.208,1.107.625Zm3.633-6.417-1.108-.625,1.817-3.208,1.107.625Zm3.634-6.416-1.107-.625,1.815-3.208,1.108.625Zm3.631-6.416-1.1-.626,1.818-3.208,1.1.626Zm3.636-6.416-1.108-.628,1.817-3.208,1.107.628Zm3.631-6.417-1.1-.626,1.818-3.208,1.1.626Zm3.635-6.416-1.107-.626.828-1.461.013-1.678,1.27.01-.015,2.009Zm1.037-7.441-1.27-.011.03-3.687,1.27.011Zm.062-7.375-1.27-.009.029-3.687,1.27.01Zm.06-7.372-1.27-.011.032-3.686,1.27.01Zm.062-7.374-1.27-.01.03-3.687,1.27.01Zm.061-7.372-1.27-.011.032-3.687,1.27.011Zm.061-7.374-1.27-.011.03-3.687,1.27.011Zm.062-7.374-1.27-.01.03-3.687,1.27.01Z" data-name="Path 3124" id="Path_3124"></path></g><g transform="translate(29.668 109.649)" data-name="Group 1699" id="Group_1699"><path fill="#f98d74" transform="translate(-48.931 -111.885)" d="M50.2,115.31l-1.27-.011.019-2.264,1.953-1.15.645,1.094-1.332.785Z" data-name="Path 3125" id="Path_3125"></path></g><g transform="translate(34.815 34.819)" data-name="Group 1700" id="Group_1700"><path fill="#f98d74" transform="translate(-52.982 -52.984)" d="M53.627,127.04l-.645-1.1,3.177-1.87.645,1.1Zm6.355-3.74-.645-1.1,3.177-1.87.645,1.1Zm6.355-3.74-.645-1.1,3.177-1.87.645,1.1Zm6.355-3.74-.645-1.094,3.177-1.87.645,1.094Zm6.355-3.739-.645-1.1,3.177-1.87.645,1.1Zm6.355-3.74-.645-1.1,3.177-1.87.645,1.1Zm6.355-3.74-.645-1.1,3.177-1.87.645,1.1Zm6.355-3.74-.645-1.094,1.448-.852.851-1.446,1.094.644-1.018,1.73Zm4.619-5.925-1.1-.644,1.87-3.177,1.094.644Zm3.739-6.355-1.094-.644,1.869-3.177,1.1.644Zm3.739-6.354-1.094-.645,1.871-3.177,1.094.644Zm3.741-6.356-1.1-.644,1.87-3.177,1.094.644Zm3.739-6.355-1.094-.644,1.869-3.177,1.1.644Zm3.74-6.355-1.094-.644,1.87-3.177,1.094.644Zm3.74-6.355-1.1-.644,1.87-3.177,1.094.644Z" data-name="Path 3126" id="Path_3126"></path></g></g><g transform="translate(33.851 37.085)" data-name="Group 1751" id="Group_1751"><g transform="translate(320.724 84.22)" data-name="Group 1708" id="Group_1708"><g data-name="Group 1704" id="Group_1704"><g transform="translate(0 12.171)" data-name="Group 1702" id="Group_1702"><path fill="#f98d74" transform="translate(-304.671 -130.639)" d="M315.262,150.609a15.183,15.183,0,0,0-10.59-18.345l.46-1.625a16.874,16.874,0,0,1,11.77,20.383Z" data-name="Path 3127" id="Path_3127"></path></g><g transform="translate(21.021)" data-name="Group 1703" id="Group_1703"><path fill="#f98d74" transform="translate(-321.217 -121.059)" d="M323.48,133.642a16.817,16.817,0,0,1-1.743-12.583l1.639.414a15.183,15.183,0,0,0,10.591,18.344l-.461,1.625A16.815,16.815,0,0,1,323.48,133.642Z" data-name="Path 3128" id="Path_3128"></path></g></g><g transform="translate(6.856 7.558)" data-name="Group 1707" id="Group_1707"><g transform="translate(0 0)" data-name="Group 1705" id="Group_1705"><rect fill="#f98d74" transform="matrix(0.866, -0.5, 0.5, 0.866, 0, 8.651)" height="1.689" width="17.301" data-name="Rectangle 50" id="Rectangle_50"></rect></g><g transform="translate(4.229 7.326)" data-name="Group 1706" id="Group_1706"><rect fill="#f98d74" transform="matrix(0.866, -0.5, 0.5, 0.866, 0, 8.65)" height="1.69" width="17.301" data-name="Rectangle 51" id="Rectangle_51"></rect></g></g></g><g transform="translate(29.007 80.881)" data-name="Group 1711" id="Group_1711"><g data-name="Group 1709" id="Group_1709"><path fill="#f98d74" transform="translate(-75.055 -118.431)" d="M77.737,144.614q-.158.274-.347.559l-1.408-.935c1.171-1.757,1.345-2.89-.576-5.342l-.352-.45.57-.988.6.015c2.715.385,3.847-.45,4.712-1.823.841-1.335,1.358-2.909-.564-5.36l-.353-.45.572-.988.6.015c2.715.385,3.847-.45,4.712-1.823.841-1.335,1.358-2.908-.564-5.36l-.353-.45.572-.988.6.015c2.937.417,3.693-.238,4.72-1.829l1.42.915a4.993,4.993,0,0,1-4.692,2.724,5.407,5.407,0,0,1-.276,5.875,5.325,5.325,0,0,1-4.708,2.7,5.4,5.4,0,0,1-.26,5.9,5.312,5.312,0,0,1-4.664,2.7A4.744,4.744,0,0,1,77.737,144.614Z" data-name="Path 3129" id="Path_3129"></path></g><g transform="translate(7.582 4.378)" data-name="Group 1710" id="Group_1710"><path fill="#f98d74" transform="translate(-81.023 -121.877)" d="M83.7,148.062c-.105.183-.221.367-.346.556l-1.408-.935c1.164-1.761,1.347-2.889-.577-5.342l-.352-.45.57-.988.6.015c2.714.385,3.847-.45,4.713-1.823.841-1.333,1.353-2.911-.567-5.36l-.352-.45.57-.988.6.015c2.714.385,3.847-.451,4.712-1.823.84-1.328,1.354-2.911-.565-5.361l-.352-.448.57-.988.6.015c2.937.417,3.694-.236,4.72-1.829l1.42.916a4.994,4.994,0,0,1-4.692,2.723,5.4,5.4,0,0,1-.276,5.875,5.322,5.322,0,0,1-4.708,2.7,5.414,5.414,0,0,1-.26,5.9,5.314,5.314,0,0,1-4.665,2.7A4.746,4.746,0,0,1,83.7,148.062Z" data-name="Path 3130" id="Path_3130"></path></g></g><g transform="translate(171.769 343.507)" data-name="Group 1714" id="Group_1714"><g transform="translate(0.001)" data-name="Group 1712" id="Group_1712"><rect fill="#f98d74" height="1.689" width="29.812" data-name="Rectangle 52" id="Rectangle_52"></rect></g><g transform="translate(0 6.03)" data-name="Group 1713" id="Group_1713"><path fill="#f98d74" transform="translate(-187.426 -329.896)" d="M187.426,329.9h8.748a.845.845,0,0,1,.7,1.32c-.664.977-2.39,3.881-2.39,5.562a7.851,7.851,0,0,0,15.7,0c0-1.681-1.725-4.585-2.39-5.562a.845.845,0,0,1,.7-1.32h8.747v1.69h-7.226a12.143,12.143,0,0,1,1.86,5.192,9.54,9.54,0,1,1-19.08,0,12.128,12.128,0,0,1,1.861-5.192h-7.228Z" data-name="Path 3131" id="Path_3131"></path></g></g><g transform="translate(315.747 261.663)" data-name="Group 1717" id="Group_1717"><g transform="translate(10.22)" data-name="Group 1715" id="Group_1715"><path fill="#f98d74" transform="translate(-308.798 -260.729)" d="M309.545,263.52a5.586,5.586,0,1,1,2.044,7.63A5.59,5.59,0,0,1,309.545,263.52Zm8.211,4.741a3.9,3.9,0,1,0-5.322,1.425A3.9,3.9,0,0,0,317.756,268.262Z" data-name="Path 3132" id="Path_3132"></path></g><g transform="translate(0 8.959)" data-name="Group 1716" id="Group_1716"><path fill="#f98d74" transform="translate(-300.754 -267.78)" d="M301.482,270.809a4.917,4.917,0,0,1,3.152-2.349c4.632-1.093,7.231,2.725,9.746,6.418,2.33,3.425,4.532,6.66,8.2,6.331a5,5,0,0,0,3.834-2.482,5.66,5.66,0,0,0,.447-4.985c-1.189-2.836-3.893-3-7.022-3.2-2.106-.131-4.285-.265-6.077-1.3l.845-1.464a12.363,12.363,0,0,0,5.336,1.077c3.224.2,6.881.427,8.475,4.232a7.249,7.249,0,0,1-.558,6.509,6.671,6.671,0,0,1-5.131,3.294c-4.658.417-7.362-3.557-9.748-7.062s-4.461-6.552-7.962-5.726a3.263,3.263,0,0,0-2.279,1.96,4.635,4.635,0,0,0,.508,4.2l-1.442.88a6.293,6.293,0,0,1-.625-5.732A5.144,5.144,0,0,1,301.482,270.809Z" data-name="Path 3133" id="Path_3133"></path></g></g><g transform="translate(170.007)" data-name="Group 1720" id="Group_1720"><g transform="translate(0)" data-name="Group 1718" id="Group_1718"><path fill="#f98d74" transform="translate(-186.039 -54.768)" d="M201.735,81.166h-1.69c0-16.4-2.526-24.709-7.51-24.709a4.814,4.814,0,0,0-4.807,4.809c0,2.9,2.588,3.677,4.118,3.677V66.63c-2.8,0-5.807-1.678-5.807-5.365a6.5,6.5,0,0,1,6.5-6.5C198.812,54.768,201.735,63.156,201.735,81.166Z" data-name="Path 3134" id="Path_3134"></path></g><g transform="translate(13.925)" data-name="Group 1719" id="Group_1719"><path fill="#f98d74" transform="translate(-197 -54.768)" d="M198.69,81.166H197c0-18.01,2.923-26.4,9.2-26.4a6.5,6.5,0,0,1,6.5,6.5c0,3.687-3.011,5.365-5.809,5.365V64.942c1.531,0,4.119-.775,4.119-3.677a4.814,4.814,0,0,0-4.809-4.809C201.215,56.456,198.69,64.77,198.69,81.166Z" data-name="Path 3135" id="Path_3135"></path></g></g><g transform="translate(20.263 265.141)" data-name="Group 1725" id="Group_1725"><g data-name="Group 1723" id="Group_1723"><g data-name="Group 1721" id="Group_1721"><path fill="#f98d74" transform="translate(-68.172 -263.466)" d="M79.964,263.466,80.4,265.1l-8.965,2.4L78,274.063,76.8,275.257l-8.632-8.632Z" data-name="Path 3136" id="Path_3136"></path></g><g transform="translate(1.855 2.934)" data-name="Group 1722" id="Group_1722"><rect fill="#f98d74" transform="translate(0 1.632) rotate(-74.996)" height="35.707" width="1.689" data-name="Rectangle 53" id="Rectangle_53"></rect></g></g><g transform="translate(24.255 2.191)" data-name="Group 1724" id="Group_1724"><rect fill="#f98d74" transform="translate(0 16.09) rotate(-75)" height="1.689" width="16.658" data-name="Rectangle 54" id="Rectangle_54"></rect></g></g><g transform="translate(350.629 173.719)" data-name="Group 1730" id="Group_1730"><g transform="translate(12.264 0.677)" data-name="Group 1726" id="Group_1726"><path fill="#f98d74" transform="translate(-337.863 -192.039)" d="M337.863,193.727v-1.688c5.97,0,8.1,6.967,8.1,13.488a17.947,17.947,0,0,1-5.107,12.565l-1.211-1.176a16.271,16.271,0,0,0,4.628-11.388C344.271,203.557,343.962,193.727,337.863,193.727Z" data-name="Path 3137" id="Path_3137"></path></g><g transform="translate(6.712 0.677)" data-name="Group 1727" id="Group_1727"><path fill="#f98d74" transform="translate(-333.493 -192.039)" d="M333.493,197.591a5.553,5.553,0,1,1,5.552,5.553A5.558,5.558,0,0,1,333.493,197.591Zm9.415,0a3.863,3.863,0,1,0-3.863,3.863A3.868,3.868,0,0,0,342.908,197.591Z" data-name="Path 3138" id="Path_3138"></path></g><g data-name="Group 1728" id="Group_1728"><path fill="#f98d74" transform="translate(-328.21 -191.506)" d="M328.21,204.072a17.957,17.957,0,0,1,5.106-12.566l1.212,1.178a16.269,16.269,0,0,0-4.628,11.388c0,1.97.309,11.8,6.408,11.8v1.69C330.338,217.56,328.21,210.593,328.21,204.072Z" data-name="Path 3139" id="Path_3139"></path></g><g transform="translate(2.545 14.948)" data-name="Group 1729" id="Group_1729"><path fill="#f98d74" transform="translate(-330.213 -203.272)" d="M330.213,208.825a5.553,5.553,0,1,1,5.553,5.553A5.559,5.559,0,0,1,330.213,208.825Zm9.417,0a3.863,3.863,0,1,0-3.863,3.863A3.868,3.868,0,0,0,339.63,208.825Z" data-name="Path 3140" id="Path_3140"></path></g></g><g transform="translate(85.982 19.395)" data-name="Group 1735" id="Group_1735"><g data-name="Group 1733" id="Group_1733"><g transform="translate(0 9.287)" data-name="Group 1731" id="Group_1731"><path fill="#f98d74" transform="translate(-119.901 -77.344)" d="M133.727,100.493l-1.638-.413A17.474,17.474,0,0,0,119.9,78.969l.461-1.625a19.164,19.164,0,0,1,13.365,23.149Z" data-name="Path 3141" id="Path_3141"></path></g><g transform="translate(15.955)" data-name="Group 1732" id="Group_1732"><path fill="#f98d74" transform="translate(-132.46 -70.034)" d="M146.416,93.183a19.162,19.162,0,0,1-13.365-23.149l1.638.413a17.476,17.476,0,0,0,12.189,21.111Z" data-name="Path 3142" id="Path_3142"></path></g></g><g transform="translate(7.272 11.161)" data-name="Group 1734" id="Group_1734"><rect fill="#f98d74" transform="matrix(0.866, -0.5, 0.5, 0.866, 0, 8.651)" height="1.69" width="17.301" data-name="Rectangle 55" id="Rectangle_55"></rect></g></g><g transform="translate(94.001 316.943)" data-name="Group 1740" id="Group_1740"><g transform="translate(2.92)" data-name="Group 1736" id="Group_1736"><path fill="#f98d74" transform="translate(-128.512 -304.241)" d="M135.41,304.241v1.69h-3.972l1.986,3.441-1.463.845-3.449-5.975Z" data-name="Path 3143" id="Path_3143"></path></g><g transform="translate(13.906 15.824)" data-name="Group 1737" id="Group_1737"><path fill="#f98d74" transform="translate(-137.159 -316.696)" d="M146.449,316.7l1.462.844-7.334,12.7c-2.923,5.064-1.62,7.553.042,9.32l-1.231,1.157c-2.879-3.062-2.967-6.66-.274-11.322Z" data-name="Path 3144" id="Path_3144"></path></g><g transform="translate(6.66 11.978)" data-name="Group 1738" id="Group_1738"><path fill="#f98d74" transform="translate(-131.455 -313.669)" d="M141.332,313.669l1.464.845-7.336,12.7c-2.471,4.281-3.016,7.512-1.42,8.435h0c.722.417,1.625.229,2.686-.559a16.39,16.39,0,0,0,3.91-4.887l7.334-12.7,1.462.845-7.334,12.7a17.76,17.76,0,0,1-4.367,5.4c-2.057,1.527-3.6,1.2-4.537.666h0c-2.574-1.486-2.282-5.4.8-10.742Z" data-name="Path 3145" id="Path_3145"></path></g><g transform="translate(0 0.278)" data-name="Group 1739" id="Group_1739"><path fill="#f98d74" transform="translate(-126.213 -304.459)" d="M131.3,304.459c3.2,1.847,4.862,3.565,5.393,5.567.864,3.26-1.317,6.993-4.932,13.178q-.736,1.256-1.549,2.659c-2.471,4.281-3.015,7.513-1.419,8.436h0c.722.417,1.625.229,2.686-.559a16.406,16.406,0,0,0,3.91-4.887l7.334-12.7,1.464.845-7.336,12.7a17.718,17.718,0,0,1-4.365,5.4c-2.058,1.528-3.6,1.206-4.538.666h0c-2.574-1.486-2.282-5.4.8-10.742q.814-1.41,1.552-2.668c3.393-5.807,5.441-9.312,4.758-11.893-.407-1.533-1.827-2.932-4.605-4.537Z" data-name="Path 3146" id="Path_3146"></path></g></g><g transform="translate(0 171.524)" data-name="Group 1742" id="Group_1742"><g data-name="Group 1741" id="Group_1741"><path fill="#f98d74" transform="translate(-52.223 -189.778)" d="M83.725,210.184h-1.69c0-7.317-4.514-9.176-8.812-10.54-3.646,3.109-10.55,3.229-13.345,3.278-.361.006-.653.011-.856.022-2.3.119-5.11,1.577-5.11,3.1,0,3.061,4.887,4.726,14.537,4.961q1.187-.029,2.465-.029h.845v1.69l-.845.057q-1.279,0-2.465-.028c-9.649.235-14.537,1.9-14.537,4.961a3.085,3.085,0,0,0,.473,1.648l-1.431.9a4.772,4.772,0,0,1-.732-2.546c0-2.884,2.38-4.793,7.36-5.806-4.98-1.013-7.36-2.922-7.36-5.806,0-2.861,3.969-4.65,6.713-4.792.216-.011.527-.017.913-.024,2.355-.041,7.975-.138,11.343-2.228-2.678-.874-4.952-1.92-4.952-4.616a4.465,4.465,0,0,1,4.61-4.61,4.619,4.619,0,0,1,4.716,4.715,6.548,6.548,0,0,1-1.1,3.778C78.781,199.713,83.725,202.151,83.725,210.184Zm-11-12.467a4.827,4.827,0,0,0,1.155-3.224,2.941,2.941,0,0,0-3.026-3.025,2.782,2.782,0,0,0-2.921,2.921C67.93,196.115,69.659,196.762,72.722,197.717Z" data-name="Path 3147" id="Path_3147"></path></g></g><g transform="translate(255.416 17.118)" data-name="Group 1745" id="Group_1745"><g transform="translate(0 10.424)" data-name="Group 1743" id="Group_1743"><path fill="#f98d74" transform="translate(-253.266 -76.447)" d="M258.341,95.393a10.155,10.155,0,1,1,13.871-3.716A10.166,10.166,0,0,1,258.341,95.393Zm9.31-16.125a8.465,8.465,0,1,0,3.1,11.564A8.475,8.475,0,0,0,267.651,79.269Z" data-name="Path 3148" id="Path_3148"></path></g><g transform="translate(7.844)" data-name="Group 1744" id="Group_1744"><path fill="#f98d74" transform="translate(-259.44 -68.242)" d="M266.115,81.258c-3.119-1.8-3.456-4.241-3.752-6.393-.279-2.025-.521-3.773-2.923-5.161l.845-1.462c3.119,1.8,3.454,4.24,3.752,6.392.28,2.025.521,3.775,2.923,5.161s4.036.722,5.929-.05c2.012-.818,4.294-1.747,7.412.053l-.845,1.462c-2.4-1.386-4.036-.722-5.929.05C271.513,82.129,269.233,83.058,266.115,81.258Z" data-name="Path 3149" id="Path_3149"></path></g></g><g transform="translate(254.105 325.173)" data-name="Group 1750" id="Group_1750"><g transform="translate(19.514)" data-name="Group 1746" id="Group_1746"><path fill="#f98d74" transform="translate(-267.594 -310.718)" d="M267.594,311.563l1.462-.845,6.958,12.053c2.759,4.779,5.406,4.889,7.629,4.365l.388,1.645c-3.9.917-6.915-.724-9.479-5.166Z" data-name="Path 3150" id="Path_3150"></path></g><g transform="translate(13.198 0.011)" data-name="Group 1747" id="Group_1747"><path fill="#f98d74" transform="translate(-262.622 -310.727)" d="M262.622,315.208l1.462-.845,6.958,12.053c2.331,4.038,4.706,6.011,6.2,5.15h0c.668-.386.936-1.2.794-2.429a15.516,15.516,0,0,0-2.155-5.514l-6.958-12.052,1.464-.845,6.957,12.052a16.868,16.868,0,0,1,2.371,6.165c.281,2.438-.729,3.567-1.628,4.086h0c-2.466,1.423-5.566-.68-8.5-5.77Z" data-name="Path 3151" id="Path_3151"></path></g><g transform="translate(0 2.574)" data-name="Group 1748" id="Group_1748"><path fill="#f98d74" transform="translate(-252.234 -312.744)" d="M252.394,312.744c5.773.546,10.04,7.939,14.982,16.5l.159.274c2.33,4.038,4.7,6.011,6.2,5.15h0c.668-.386.935-1.2.794-2.429a15.537,15.537,0,0,0-2.155-5.514l-6.958-12.052,1.462-.845,6.958,12.052a16.9,16.9,0,0,1,2.371,6.164c.281,2.438-.729,3.569-1.627,4.087h0c-2.466,1.423-5.566-.68-8.5-5.77l-.159-.273c-4.707-8.155-8.774-15.2-13.679-15.662Z" data-name="Path 3152" id="Path_3152"></path></g><g transform="translate(3.576 1.159)" data-name="Group 1749" id="Group_1749"><path fill="#f98d74" transform="translate(-255.049 -311.63)" d="M260.866,311.63l.845,1.464c-3.067,1.77-7.539,5.9-3.044,13.688,3.12,5.4,4.577,5.638,5.168,5.3s.175-2.923-.842-5.321l1.555-.661c.6,1.417,2.392,6.139.132,7.444-2.7,1.559-5.413-2.343-7.477-5.917C251.779,318.23,257.958,313.31,260.866,311.63Z" data-name="Path 3153" id="Path_3153"></path></g></g></g><g transform="translate(142.894 142.87)" data-name="Group 1753" id="Group_1753"><g transform="translate(0)" data-name="Group 1752" id="Group_1752"><path fill="#f98d74" transform="translate(-138.053 -138.033)" d="M216.626,295.485a78.712,78.712,0,1,1,76.14-99.093h0a78.7,78.7,0,0,1-55.645,96.379A79.236,79.236,0,0,1,216.626,295.485Zm.255-156.181a77.536,77.536,0,0,0-74.91,97.492,77.389,77.389,0,1,0,74.91-97.492Z" data-name="Path 3154" id="Path_3154"></path></g></g><g transform="translate(123.347 123.348)" data-name="Group 1755" id="Group_1755"><g transform="translate(0)" data-name="Group 1754" id="Group_1754"><path fill="#f98d74" transform="translate(-122.667 -122.667)" d="M220.754,319.164A98.232,98.232,0,1,1,315.775,195.5h0a98.208,98.208,0,0,1-69.442,120.276A98.736,98.736,0,0,1,220.754,319.164Zm.319-195.227a97.485,97.485,0,0,0-25.245,3.345,96.937,96.937,0,1,0,118.719,68.544h0a97.06,97.06,0,0,0-93.474-71.889Z" data-name="Path 3155" id="Path_3155"></path></g></g><g transform="translate(98.944 98.945)" data-name="Group 1757" id="Group_1757"><g data-name="Group 1756" id="Group_1756"><path fill="#f98d74" transform="translate(-103.459 -103.459)" d="M225.911,348.761a122.963,122.963,0,1,1,31.932-4.229A123.329,123.329,0,0,1,225.911,348.761Zm.4-244.031a122.027,122.027,0,0,0-31.6,4.186,120.619,120.619,0,1,0,31.6-4.186Z" data-name="Path 3156" id="Path_3156"></path></g></g><g transform="translate(68.439 68.441)" data-name="Group 1759" id="Group_1759"><g data-name="Group 1758" id="Group_1758"><path fill="#f98d74" transform="translate(-79.448 -79.449)" d="M232.355,385.76a153.55,153.55,0,1,1,39.871-5.281A153.967,153.967,0,0,1,232.355,385.76Zm.5-305.04a152.7,152.7,0,0,0-39.542,5.239,150.921,150.921,0,1,0,39.542-5.239Z" data-name="Path 3157" id="Path_3157"></path></g></g><g transform="translate(26.557 26.559)" data-name="Group 1761" id="Group_1761"><g data-name="Group 1760" id="Group_1760"><path fill="#f98d74" transform="translate(-46.481 -46.483)" d="M241.564,436.557c-86.1,0-165.1-57.534-188.416-144.564C25.318,188.126,87.179,80.982,191.046,53.15s211.012,34.029,238.844,137.9-34.029,211.012-137.9,238.844A194.661,194.661,0,0,1,241.564,436.557Zm-.089-388.8a193.3,193.3,0,0,0-50.1,6.624c-103.19,27.65-164.647,134.1-137,237.287,23.167,86.457,101.654,143.619,187.188,143.622a193.189,193.189,0,0,0,50.1-6.624c103.19-27.65,164.647-134.1,137-237.287C405.5,104.919,327.009,47.753,241.475,47.753Z" data-name="Path 3158" id="Path_3158"></path></g></g><g transform="translate(33.59 33.591)" data-name="Group 1768" id="Group_1768"><g transform="translate(137.06 0)" data-name="Group 1762" id="Group_1762"><rect fill="#f98d74" transform="matrix(0.966, -0.259, 0.259, 0.966, 0, 0.329)" height="388.935" width="1.272" data-name="Rectangle 56" id="Rectangle_56"></rect></g><g transform="translate(50.047 50.047)" data-name="Group 1763" id="Group_1763"><rect fill="#f98d74" transform="translate(0 0.898) rotate(-45)" height="388.935" width="1.27" data-name="Rectangle 57" id="Rectangle_57"></rect></g><g transform="translate(0 137.06)" data-name="Group 1764" id="Group_1764"><rect fill="#f98d74" transform="translate(0 1.228) rotate(-75)" height="388.935" width="1.271" data-name="Rectangle 58" id="Rectangle_58"></rect></g><g transform="translate(0.036 136.925)" data-name="Group 1765" id="Group_1765"><rect fill="#f98d74" transform="translate(0 100.934) rotate(-15.041)" height="1.271" width="388.935" data-name="Rectangle 59" id="Rectangle_59"></rect></g><g transform="translate(50.047 50.047)" data-name="Group 1766" id="Group_1766"><rect fill="#f98d74" transform="translate(0 275.019) rotate(-45)" height="1.27" width="388.935" data-name="Rectangle 60" id="Rectangle_60"></rect></g><g transform="translate(136.924 0.036)" data-name="Group 1767" id="Group_1767"><rect fill="#f98d74" transform="translate(0 375.61) rotate(-74.959)" height="1.272" width="388.935" data-name="Rectangle 61" id="Rectangle_61"></rect></g></g><g transform="translate(184.747 184.749)" data-name="Group 1769" id="Group_1769"><path fill="#f98d74" transform="translate(-170.996 -170.997)" d="M207.853,244.692a36.845,36.845,0,1,1,35.58-46.383h0a36.857,36.857,0,0,1-35.58,46.383Zm-.017-72.424A35.574,35.574,0,1,0,242.2,198.637,35.493,35.493,0,0,0,207.837,172.269Z" data-name="Path 3159" id="Path_3159"></path></g><g transform="translate(186.837 186.837)" data-name="Group 1770" id="Group_1770"><path fill="#f98d74" transform="translate(-172.641 -172.641)" d="M216.713,242.159l-9.314-2.413-9.314,2.413-6.859-6.746-9.272-2.568-2.569-9.273-6.745-6.858,2.411-9.314-2.411-9.315,6.745-6.859,2.569-9.272,9.272-2.568,6.859-6.746,9.314,2.413,9.314-2.413,6.858,6.746,9.273,2.568,2.569,9.272,6.745,6.859-2.411,9.315,2.411,9.314-6.745,6.858-2.569,9.273-9.273,2.568Zm-9.314-3.725,8.936,2.316,6.581-6.473,8.9-2.465,2.463-8.9,6.473-6.58-2.315-8.936,2.315-8.936-6.473-6.581-2.463-8.9-8.9-2.463-6.581-6.472-8.936,2.313-8.936-2.313-6.581,6.472-8.9,2.463-2.463,8.9-6.473,6.581,2.315,8.936-2.315,8.936,6.473,6.58,2.463,8.9,8.9,2.465,6.581,6.473Z" data-name="Path 3160" id="Path_3160"></path></g><g transform="translate(189.881 189.916)" data-name="Group 1771" id="Group_1771"><path fill="#f98d74" transform="translate(-175.037 -175.064)" d="M206.751,238.458a.637.637,0,0,1-.581-.376l-4.884-10.946-9.7,7.037a.635.635,0,0,1-1-.579l1.244-11.921L179.9,222.916a.635.635,0,0,1-.579-1l7.037-9.7-10.946-4.884a.635.635,0,0,1,0-1.16l10.946-4.884-7.037-9.7a.635.635,0,0,1,.579-1l11.922,1.244L190.58,179.9a.635.635,0,0,1,1-.579l9.7,7.037,4.884-10.946a.663.663,0,0,1,1.161,0l4.884,10.946,9.7-7.037a.635.635,0,0,1,1,.579l-1.243,11.922,11.922-1.244a.635.635,0,0,1,.579,1l-7.037,9.7,10.946,4.884a.635.635,0,0,1,0,1.16l-10.946,4.884,7.037,9.7a.635.635,0,0,1-.579,1l-11.922-1.242,1.243,11.921a.635.635,0,0,1-1,.579l-9.7-7.037-4.884,10.946A.637.637,0,0,1,206.751,238.458Zm-5.2-12.931a.65.65,0,0,1,.164.02.632.632,0,0,1,.417.356l4.623,10.362,4.623-10.362a.632.632,0,0,1,.417-.356.641.641,0,0,1,.537.1l9.183,6.661-1.178-11.284a.638.638,0,0,1,.183-.516.614.614,0,0,1,.515-.182l11.285,1.178-6.661-9.184a.636.636,0,0,1,.254-.954l10.361-4.622-10.361-4.623a.634.634,0,0,1-.254-.953l6.661-9.184-11.285,1.176a.636.636,0,0,1-.7-.7l1.178-11.284-9.183,6.661a.636.636,0,0,1-.954-.255l-4.623-10.361-4.623,10.361a.631.631,0,0,1-.415.354.639.639,0,0,1-.539-.1l-9.183-6.661,1.178,11.284a.636.636,0,0,1-.7.7l-11.285-1.176,6.661,9.184a.634.634,0,0,1-.254.953l-10.361,4.623,10.361,4.622a.636.636,0,0,1,.254.954l-6.661,9.184,11.285-1.178a.621.621,0,0,1,.515.182.643.643,0,0,1,.183.516l-1.178,11.284,9.183-6.661A.636.636,0,0,1,201.548,225.528Z" data-name="Path 3161" id="Path_3161"></path></g><g transform="translate(201.697 201.698)" data-name="Group 1772" id="Group_1772"><path fill="#f98d74" transform="translate(-184.338 -184.338)" d="M209.227,224.134a1.27,1.27,0,0,1-1.124-.678l-3.867-7.313-3.867,7.313a1.271,1.271,0,0,1-2.394-.64l.307-8.267-7.007,4.4a1.271,1.271,0,0,1-1.752-1.753l4.4-7-8.267.307a1.322,1.322,0,0,1-1.274-.94,1.268,1.268,0,0,1,.633-1.455l7.314-3.868-7.313-3.867a1.267,1.267,0,0,1-.635-1.45,1.226,1.226,0,0,1,1.3-.941l8.24.306-4.4-7.008a1.27,1.27,0,0,1,1.752-1.751l7.007,4.4-.307-8.268a1.271,1.271,0,0,1,2.392-.644l3.869,7.317,3.867-7.313a1.271,1.271,0,0,1,2.394.64l-.307,8.268,7.007-4.4a1.272,1.272,0,0,1,1.752,1.753l-4.4,7.007,8.267-.309h.024a1.27,1.27,0,0,1,.617,2.392l-7.314,3.869,7.314,3.868a1.267,1.267,0,0,1,.634,1.45,1.324,1.324,0,0,1-1.24.945l-8.3-.307,4.4,7a1.276,1.276,0,0,1-.18,1.574,1.257,1.257,0,0,1-1.57.178l-7.008-4.4.307,8.267a1.263,1.263,0,0,1-.939,1.274A1.292,1.292,0,0,1,209.227,224.134ZM199.641,212.2l-.4,10.665,4.992-9.437,4.99,9.437-.4-10.665,9.039,5.674-5.676-9.039,10.668.4.3-.564-.3.563-9.437-4.992,9.437-4.992-10.668.4,5.678-9.042-9.041,5.678.4-10.669-4.992,9.437-4.99-9.437.4,10.669L190.6,190.6l5.678,9.042-10.668-.4,9.437,4.99-9.437,4.992,10.668-.4L190.6,217.87Z" data-name="Path 3162" id="Path_3162"></path></g><path fill="#f98d74" transform="translate(20.951 -22.997)" d="M199.462,36.267h-.028l-1.579.852-.238-.936,1.984-1.062h1.048v9.085h-1.188Z" data-name="Path 3163" id="Path_3163"></path><path fill="#f98d74" transform="translate(42.61 -17.085)" d="M277.7,64.13l.377-.654,1.3-.328c3.113-.753,4.608-1.246,5.305-2.424a1.62,1.62,0,0,0-.675-2.439,3.094,3.094,0,0,0-2.053-.3l.093-.946a4,4,0,0,1,2.689.487,2.557,2.557,0,0,1,1.088,3.679c-.839,1.452-2.57,2.019-5.15,2.659l-.964.217-.014.024,3.534,2.04-.511.884Z" data-name="Path 3164" id="Path_3164"></path><path fill="#f98d74" transform="translate(58.612 -1.087)" d="M337.865,119.683a4.118,4.118,0,0,0,.509,2.03,1.778,1.778,0,0,0,2.552.9c1.1-.648.993-1.913.4-2.942l-.343-.593.8-.461.343.593c.447.775,1.413,1.525,2.344.987a1.369,1.369,0,0,0,.389-2.066,3.337,3.337,0,0,0-1.428-1.273l.615-.725a4.325,4.325,0,0,1,1.793,1.709c.894,1.549.38,2.782-.577,3.334a2.253,2.253,0,0,1-2.691-.384l-.024.015a2.365,2.365,0,0,1-1.007,2.922c-1.259.727-2.927.382-4.017-1.505a4.627,4.627,0,0,1-.648-2.354Z" data-name="Path 3165" id="Path_3165"></path><path fill="#f98d74" transform="translate(64.321 20.775)" d="M357.979,201.186h2.474v-4.222h.812l5.8,4.054v1.328h-5.646v1.272h-.966v-1.272h-2.474Zm3.439,0h3.033c.475,0,.95.013,1.425.042v-.042c-.531-.28-.922-.5-1.342-.755l-3.088-2.222h-.028Z" data-name="Path 3166" id="Path_3166"></path><path fill="#f98d74" transform="translate(58.597 42.138)" d="M342.842,284.513l1.734-3-1.847-1.469a4.743,4.743,0,0,1-.323.668,3.84,3.84,0,0,1-1.4,1.451,2.6,2.6,0,0,1-2.672-.042,3.153,3.153,0,0,1-1-4.481,4.466,4.466,0,0,1,1.616-1.682l.658.736a4.071,4.071,0,0,0-1.408,1.431,2.005,2.005,0,0,0,.631,2.85c1.023.576,2.141.316,3.049-1.258a9.408,9.408,0,0,0,.545-1.138l3.482,2.688-2.174,3.766Z" data-name="Path 3167" id="Path_3167"></path><path fill="#f98d74" transform="translate(42.88 58.567)" d="M282.535,345.453a4.412,4.412,0,0,0,.771-.509,3.692,3.692,0,0,0,1.122-4.375l-.037.022a2.769,2.769,0,0,1-5.215.832,3.036,3.036,0,0,1,1.014-4.281c1.682-.972,3.538-.3,4.718,1.746a5.706,5.706,0,0,1,.717,4.316,4.942,4.942,0,0,1-1.846,2.615,5.906,5.906,0,0,1-.741.508Zm-2.319-4.713a1.846,1.846,0,0,0,2.664.866,2.023,2.023,0,0,0,.966-1.849,1.04,1.04,0,0,0-.151-.542c-.772-1.281-1.917-1.894-3.03-1.251A1.9,1.9,0,0,0,280.217,340.74Z" data-name="Path 3168" id="Path_3168"></path><path fill="#f98d74" transform="translate(20.985 64.104)" d="M197.745,366.26v-.809l3.955-8.276h1.272l-3.942,8.037v.028h4.445v1.02Z" data-name="Path 3169" id="Path_3169"></path><path fill="#f98d74" transform="translate(-1.007 58.55)" d="M124.086,340.8a2.593,2.593,0,0,1-2.776,1.2l-.01.043a2.252,2.252,0,0,1,.227,2.488,2.545,2.545,0,0,1-3.642.689,2.346,2.346,0,0,1-1.169-3.257,2.309,2.309,0,0,1,2.357-1.093l.02-.036a2.518,2.518,0,0,1-.41-2.949c.789-1.368,2.494-1.611,4-.744C124.324,338.094,124.751,339.648,124.086,340.8Zm-4.264-2.4c-.553.957-.151,1.8.738,2.719a1.976,1.976,0,0,0,2.353-.8,1.68,1.68,0,0,0-.706-2.41A1.645,1.645,0,0,0,119.823,338.4Zm.658,5.626c.454-.786.105-1.554-.662-2.319a1.791,1.791,0,0,0-2.024.736,1.412,1.412,0,0,0,.591,2.052A1.445,1.445,0,0,0,120.481,344.026Z" data-name="Path 3170" id="Path_3170"></path><path fill="#f98d74" transform="translate(-17.504 42.784)" d="M64.247,281.643a5.12,5.12,0,0,0-.532-.837A3.419,3.419,0,0,0,62,279.6a3.992,3.992,0,0,0-2.7.168l.02.036a2.669,2.669,0,0,1,1.917,1.363,2.632,2.632,0,0,1-1.067,3.715,3.114,3.114,0,0,1-4.347-1.072c-.929-1.61-.2-3.358,1.814-4.518a5.741,5.741,0,0,1,4.475-.775,4.539,4.539,0,0,1,2.374,1.68,5.639,5.639,0,0,1,.625.945ZM59.5,283.87a1.748,1.748,0,0,0,.8-2.477,2.034,2.034,0,0,0-1.718-1.075.807.807,0,0,0-.443.127c-1.343.776-2.086,1.866-1.443,2.979A1.952,1.952,0,0,0,59.5,283.87Z" data-name="Path 3171" id="Path_3171"></path><g transform="translate(12.053 215.405)" data-name="Group 1773" id="Group_1773"><path fill="#f98d74" transform="translate(-35.032 -193.136)" d="M36.332,203.675v.028l.854,1.58-.938.236-1.062-1.983v-1.049h9.085v1.188Z" data-name="Path 3172" id="Path_3172"></path><path fill="#f98d74" transform="translate(-35.065 -195.127)" d="M39.664,195.127c3.088,0,4.793,1.146,4.793,3.158,0,1.776-1.663,2.978-4.668,3.006-3.047,0-4.725-1.315-4.725-3.16C35.065,196.217,36.771,195.127,39.664,195.127Zm.14,4.934c2.362,0,3.7-.727,3.7-1.845,0-1.259-1.467-1.859-3.787-1.859-2.236,0-3.7.573-3.7,1.845C36.015,199.279,37.33,200.061,39.8,200.061Z" data-name="Path 3173" id="Path_3173"></path></g><g transform="translate(37.87 113.323)" data-name="Group 1774" id="Group_1774"><path fill="#f98d74" transform="translate(-55.386 -113.454)" d="M56.381,121.264l-.014.025-.051,1.794-.93-.263.072-2.249.525-.908,7.867,4.543-.593,1.028Z" data-name="Path 3174" id="Path_3174"></path><path fill="#f98d74" transform="translate(-54.623 -114.776)" d="M59.2,116.377l-.014.025-.051,1.794-.93-.263.072-2.25.523-.907,7.868,4.542-.593,1.028Z" data-name="Path 3175" id="Path_3175"></path></g><g transform="translate(112.144 38.426)" data-name="Group 1775" id="Group_1775"><path fill="#f98d74" transform="translate(-113.849 -55.049)" d="M115.488,60.274l-.024.014-.941,1.528-.673-.692,1.187-1.911.908-.525,4.542,7.868-1.028.593Z" data-name="Path 3176" id="Path_3176"></path><path fill="#f98d74" transform="translate(-112.67 -55.824)" d="M122.174,65.675l-.377-.654.367-1.293c.9-3.072,1.226-4.613.554-5.807a1.621,1.621,0,0,0-2.449-.635,3.1,3.1,0,0,0-1.286,1.63l-.772-.554a3.975,3.975,0,0,1,1.766-2.085,2.556,2.556,0,0,1,3.729.9c.84,1.452.464,3.235-.272,5.789l-.293.944.014.024,3.533-2.04.511.884Z" data-name="Path 3177" id="Path_3177"></path></g><g transform="translate(216.318 216.32)" data-name="Group 1776" id="Group_1776"><path fill="#f98d74" transform="translate(-195.846 -195.847)" d="M201.124,206.4a5.277,5.277,0,1,1,5.277-5.277A5.283,5.283,0,0,1,201.124,206.4Zm0-9.283a4.006,4.006,0,1,0,4.007,4.006A4.012,4.012,0,0,0,201.124,197.117Z" data-name="Path 3178" id="Path_3178"></path></g></g><g transform="translate(44.216 44.208)" data-name="Group 1845" id="Group_1845"><g transform="translate(167.248 0)" data-name="Group 1829" id="Group_1829"><g data-name="Group 1827" id="Group_1827"><path fill="#f98d74" transform="translate(-141.725 -10.082)" d="M149.846,34.176l.483-9.2-8.6-3.3,8.9-2.385.481-9.2,5.02,7.728,8.9-2.385-5.8,7.162,5.02,7.729-8.6-3.3Zm-4.015-12.29,5.815,2.231-.327,6.22L155.24,25.5l5.815,2.231L157.662,22.5l3.921-4.84-6.017,1.612-3.392-5.224-.325,6.221Z" data-name="Path 3227" id="Path_3227"></path></g><g transform="translate(124.766 458.47)" data-name="Group 1828" id="Group_1828"><path fill="#f98d74" transform="translate(-239.931 -370.953)" d="M253.853,395.047l-5.021-7.728-8.9,2.385,5.8-7.161-5.02-7.729,8.6,3.3,5.8-7.163-.483,9.2,8.6,3.3-8.9,2.385Zm-4.457-9.194,3.392,5.224.325-6.221,6.017-1.612-5.815-2.231.327-6.22-3.921,4.839-5.815-2.231,3.392,5.224-3.919,4.84Z" data-name="Path 3228" id="Path_3228"></path></g></g><g transform="translate(62.32 62.317)" data-name="Group 1832" id="Group_1832"><g data-name="Group 1830" id="Group_1830"><path fill="#f98d74" transform="translate(-59.134 -59.133)" d="M72.42,82.964l-4.185-8.211-9.1,1.442,6.516-6.516-4.184-8.212,8.212,4.185,6.515-6.519-1.441,9.1,8.212,4.184-9.1,1.442ZM68.95,73.353,71.778,78.9l.973-6.15,6.153-.976-5.549-2.829.974-6.15-4.4,4.4-5.551-2.827L67.2,69.924l-4.4,4.4Z" data-name="Path 3229" id="Path_3229"></path></g><g transform="translate(334.096 334.099)" data-name="Group 1831" id="Group_1831"><path fill="#f98d74" transform="translate(-322.108 -322.109)" d="M328.878,345.94l1.442-9.1-8.212-4.184,9.1-1.442,1.442-9.1,4.185,8.211,9.1-1.441-6.516,6.515,4.184,8.212-8.212-4.185ZM326.17,333.3l5.549,2.829-.974,6.15,4.4-4.4L340.7,340.7l-2.828-5.549,4.4-4.4-6.152.976-2.828-5.551-.974,6.15Z" data-name="Path 3230" id="Path_3230"></path></g></g><g transform="translate(0 167.248)" data-name="Group 1835" id="Group_1835"><g data-name="Group 1833" id="Group_1833"><path fill="#f98d74" transform="translate(-10.081 -141.726)" d="M15.426,165.029l2.385-8.9-7.729-5.021,9.2-.483,2.386-8.9,3.3,8.6,9.2-.483-7.162,5.8,3.3,8.6-7.729-5.02Zm-1.373-12.856,5.224,3.392-1.612,6.017,4.842-3.919,5.224,3.392L25.5,155.239l4.84-3.919-6.219.327-2.233-5.816-1.612,6.017Z" data-name="Path 3231" id="Path_3231"></path></g><g transform="translate(359.471 290.766)" data-name="Group 1834" id="Group_1834"><path fill="#f98d74" transform="translate(-370.953 -239.932)" d="M383.459,263.235l-3.3-8.6-9.2.483,7.162-5.8-3.3-8.6,7.729,5.02,7.161-5.8-2.385,8.9,7.728,5.02-9.2.483Zm-2.448-9.92,2.233,5.816,1.611-6.017,6.22-.327-5.223-3.392,1.612-6.017-4.842,3.919-5.224-3.392,2.233,5.816-4.84,3.919Z" data-name="Path 3232" id="Path_3232"></path></g></g><g transform="translate(0 167.248)" data-name="Group 1838" id="Group_1838"><g transform="translate(0 124.766)" data-name="Group 1836" id="Group_1836"><path fill="#f98d74" transform="translate(-10.081 -239.932)" d="M21.67,263.235l-2.386-8.9-9.2-.483,7.729-5.02-2.385-8.9,7.162,5.8,7.729-5.02-3.3,8.6,7.162,5.8-9.2-.483Zm-7.618-10.447,6.22.327,1.612,6.017,2.233-5.816,6.219.327-4.84-3.919,2.233-5.816L22.506,247.3l-4.842-3.919,1.612,6.017Z" data-name="Path 3233" id="Path_3233"></path></g><g transform="translate(112.471 309)" data-name="Group 1837" id="Group_1837"><path fill="#f98d74" transform="translate(-370.953 -141.726)" d="M389.7,165.029l-7.161-5.8-7.729,5.02,3.3-8.6-7.162-5.8,9.2.483,3.3-8.6,2.386,8.9,9.2.483-7.728,5.021Zm-7.08-7.366,4.842,3.919-1.612-6.017,5.223-3.392-6.22-.327-1.611-6.017-2.233,5.816-6.219-.327,4.84,3.919-2.233,5.816Z" data-name="Path 3234" id="Path_3234"></path></g></g><g transform="translate(62.32 62.317)" data-name="Group 1841" id="Group_1841"><g transform="translate(0 334.099)" data-name="Group 1839" id="Group_1839"><path fill="#f98d74" transform="translate(-59.134 -322.109)" d="M76.194,345.94l-6.515-6.519-8.212,4.185,4.184-8.212-6.516-6.515,9.1,1.441,4.185-8.211,1.442,9.1,9.1,1.442-8.212,4.184Zm-6.27-8.069,4.4,4.4-.974-6.15L78.9,333.3l-6.153-.976-.973-6.15L68.95,331.72l-6.152-.976,4.4,4.4L64.373,340.7Z" data-name="Path 3235" id="Path_3235"></path></g><g transform="translate(334.096)" data-name="Group 1840" id="Group_1840"><path fill="#f98d74" transform="translate(-322.108 -59.133)" d="M332.653,82.964l-1.442-9.1-9.1-1.442,8.212-4.184-1.442-9.1,6.516,6.519,8.212-4.185-4.184,8.212,6.516,6.516-9.1-1.442ZM326.17,71.778l6.152.976.974,6.15,2.828-5.551,6.152.976-4.4-4.4,2.828-5.549L335.149,67.2l-4.4-4.4.974,6.15Z" data-name="Path 3236" id="Path_3236"></path></g></g><g transform="translate(167.248 0)" data-name="Group 1844" id="Group_1844"><g transform="translate(0 458.47)" data-name="Group 1842" id="Group_1842"><path fill="#f98d74" transform="translate(-141.725 -370.953)" d="M151.109,395.047l-.481-9.2-8.9-2.385,8.6-3.3-.483-9.2,5.8,7.163,8.6-3.3-5.02,7.729,5.8,7.161-8.9-2.385Zm-5.277-11.8,6.017,1.612.325,6.221,3.392-5.224,6.017,1.612-3.921-4.84,3.393-5.224-5.815,2.231-3.921-4.839.327,6.22Z" data-name="Path 3237" id="Path_3237"></path></g><g transform="translate(124.766)" data-name="Group 1843" id="Group_1843"><path fill="#f98d74" transform="translate(-239.931 -10.082)" d="M255.115,34.176l-5.8-7.163-8.6,3.3,5.02-7.729-5.8-7.162,8.9,2.385,5.021-7.728.481,9.2,8.9,2.385-8.6,3.3ZM249.721,25.5l3.921,4.839-.327-6.22,5.815-2.231-6.017-1.612-.325-6.221L249.4,19.276l-6.017-1.612L247.3,22.5l-3.392,5.224Z" data-name="Path 3238" id="Path_3238"></path></g></g></g><g transform="translate(50.677 50.667)" data-name="Group 1846" id="Group_1846"><path fill="#f98d74" transform="translate(72.68 -15.166)" d="M345.658,32.031l.338-6.44-6.022-2.313,6.232-1.669.337-6.442,3.514,5.411,6.232-1.669-4.06,5.013,3.514,5.41-6.023-2.311Zm3.776-6.074L353.5,27.52l-2.374-3.658,2.744-3.388L349.663,21.6l-2.376-3.658-.227,4.355-4.212,1.128,4.071,1.563-.229,4.354Z" data-name="Path 3239" id="Path_3239"></path><path fill="#f98d74" transform="translate(80.941 -6.905)" d="M376.2,62.576l.338-6.441-6.022-2.312,6.23-1.669.338-6.442,3.513,5.41,6.232-1.669-4.059,5.014,3.513,5.408-6.022-2.31Zm3.776-6.074,4.071,1.561-2.375-3.656,2.744-3.388-4.213,1.128-2.375-3.656-.227,4.354-4.213,1.128,4.072,1.563-.229,4.355Z" data-name="Path 3240" id="Path_3240"></path><path fill="#f98d74" transform="translate(-15.166 -6.506)" d="M32.031,57.815l-6.44-.338L23.278,63.5l-1.669-6.232-6.442-.337,5.411-3.514-1.669-6.232,5.013,4.06,5.41-3.514-2.311,6.023Zm-6.074-3.776,1.563-4.071-3.658,2.374L20.474,49.6,21.6,53.81l-3.658,2.376,4.354.227,1.129,4.212,1.563-4.071,4.354.227Z" data-name="Path 3241" id="Path_3241"></path><path fill="#f98d74" transform="translate(-6.905 -14.767)" d="M62.577,27.27l-6.441-.338-2.312,6.022-1.671-6.23-6.442-.338,5.411-3.513-1.669-6.232L54.466,20.7l5.408-3.513-2.311,6.022ZM56.5,23.494l1.561-4.071L54.408,21.8l-3.388-2.744,1.128,4.213-3.656,2.374,4.354.227,1.128,4.213,1.563-4.072,4.355.229Z" data-name="Path 3242" id="Path_3242"></path><path fill="#f98d74" transform="translate(-6.506 81.222)" d="M57.815,371.559,57.477,378l6.022,2.313-6.232,1.669-.337,6.442-3.514-5.411-6.232,1.669,4.059-5.013-3.513-5.41,6.023,2.311Zm-3.776,6.074-4.071-1.563,2.374,3.658L49.6,383.116l4.212-1.129,2.374,3.658.229-4.355,4.212-1.128L56.555,378.6l.227-4.354Z" data-name="Path 3243" id="Path_3243"></path><path fill="#f98d74" transform="translate(-14.767 72.961)" d="M27.27,341.014l-.338,6.441,6.022,2.312-6.23,1.669-.338,6.442-3.513-5.41-6.232,1.669,4.059-5.014-3.513-5.408,6.022,2.311Zm-3.776,6.074-4.071-1.561,2.374,3.656-2.744,3.388,4.213-1.128,2.374,3.656.227-4.354,4.213-1.128-4.072-1.563.229-4.355Z" data-name="Path 3244" id="Path_3244"></path><path fill="#f98d74" transform="translate(-124.039 113.941)" d="M341.014,376.2l6.441.338,2.312-6.022,1.669,6.23,6.442.338-5.41,3.513,1.669,6.232-5.014-4.059-5.408,3.513,2.31-6.022Zm6.074,3.776-1.561,4.071,3.656-2.375,3.388,2.744-1.128-4.213,3.656-2.375-4.354-.227-1.128-4.213-1.563,4.072-4.355-.229Z" data-name="Path 3246" id="Path_3246"></path></g></g></g></g></svg>
